<svg fill="#000000" xmlns="http://www.w3.org/2000/svg"
     x="0px" y="0px" width="842px" height="595px" viewBox="0 0 842 595">

		<path d="M 249.13470100676855 206.81430066585168 L 249.1444009580323 206.89115205774152 L 249.04161663129676 206.84501334232897 L 248.90054187278042 206.6765730756729 L 248.89305927156502 206.6697961026657 L 248.75997763923087 206.55035719549304 L 248.78861117925976 206.42166327116448 L 248.82179081134998 206.37845388781446 L 248.96271971910963 206.50391037255469 L 249.0681751346027 206.67727642915378 L 249.10468784686873 206.73799211468935 L 249.13470100676855 206.81430066585168 z" />
		<path
			onmouseover="setAttribute('fill-opacity','1.0')"
			onmouseout="setAttribute('fill-opacity','0.75')"
			fill="#FFFFFF" stroke="#007D7D" d="M 537.0599710569209 76.18943114933344 L 537.1494690278355 76.23471280419358 L 536.6272352486194 76.29376445453065 L 536.5186144040181 76.30793991761087 L 535.5011075111087 76.41829203173543 L 534.8799715161906 76.60089671053456 L 534.8456380578161 76.61268685369201 L 534.6951364059391 76.61692087908096 L 534.3178732909578 76.50634046028917 L 533.7804471269203 76.38901790103239 L 533.6429414429522 76.40782724178635 L 533.4775436589662 76.4305903385389 L 532.4519617623614 76.57808849404375 L 532.1187225907064 76.6483972113123 L 531.287215559294 76.82581862333403 L 530.7865200863773 77.00247928125295 L 530.6769321721564 77.03753662407695 L 529.8728938872846 77.29486787284986 L 529.298577789073 77.51169130377521 L 529.2230833251115 77.55797696438958 L 528.8861975839442 77.7626489369048 L 528.4187094233505 78.07997600787759 L 527.9557528313055 78.35671154087777 L 527.6298419544224 78.51999074066896 L 527.6101582411391 78.53401525249149 L 527.1825628913647 78.83754353861181 L 527.1109098825767 78.91580547762055 L 526.7862052820515 79.26776899594141 L 525.8192192013908 80.06450602085359 L 525.6249165459084 80.21297412652316 L 525.2745568625502 80.47633015056655 L 524.9187637986469 80.82744525026172 L 524.6573997967264 80.95438441123773 L 524.2728812854564 81.08976199309654 L 523.8525755387266 81.59784222647882 L 523.7216442550881 81.76708414057535 L 523.5442945260723 81.99535948198785 L 523.3301502264374 82.26954392395768 L 522.4339810177628 83.33532691778896 L 522.0048187716782 83.8322560537209 L 521.634115635843 84.43882113747289 L 521.6668162653027 84.6030000054397 L 521.828085934908 84.63722013992546 L 521.9889035911405 84.6794787301508 L 522.0826320137531 84.93236818832895 L 522.1048378682422 85.17309439247245 L 522.0835715154875 85.85621211855499 L 522.0156567277729 86.48963314132273 L 522.0102379111584 86.53768494280803 L 522.023702916212 86.56282634500988 L 522.1264660969746 86.7649103036293 L 522.0176859655512 87.30532175733786 L 521.9632518092617 87.63448090299752 L 521.7795320323783 87.92931277741462 L 521.6005253074422 88.22881140923683 L 521.5280005737594 88.46070878773912 L 521.5718678275314 88.65575072928041 L 521.5753252332368 88.6716487096019 L 521.6095868232128 88.83208694325802 L 521.6129646136169 88.98328532536232 L 521.4831843293373 89.19936512403464 L 521.1851157799069 89.55708075334334 L 521.0435561914584 89.79184327043583 L 520.9888774472754 89.88215122912311 L 520.6269566876626 90.43103288134529 L 520.195712926069 90.84241137417442 L 520.0112948804483 91.01830218761648 L 519.8956642575438 91.1251708553846 L 519.5297111731609 91.65928138502585 L 519.2440293977726 91.99382950461217 L 519.0036963600596 92.27177553862498 L 518.7398018598 92.75358458343653 L 518.5261077105146 93.04058909995427 L 518.3250369935644 93.20741855988867 L 518.3256313836279 93.24857602050719 L 518.3287882594714 93.44600599858198 L 518.4327009441383 93.73353210805209 L 518.6375866256399 94.05351879392197 L 518.5390610732685 94.60620581902225 L 518.4928742608777 95.01870472773773 L 518.4769226942701 95.27051068752807 L 518.4613928976207 95.51786225840166 L 518.2695683348411 95.92818464894336 L 517.4300264857536 96.25464264342655 L 517.2595035974241 96.28021692537708 L 516.6733048923677 96.35875864641017 L 516.0342220682937 96.45204814895486 L 515.9649511699677 96.48057719946779 L 515.7584520530518 96.51682503864959 L 515.6019542148287 96.51638131919056 L 515.2596032209075 96.45763582091872 L 515.0871865379511 96.43130499696878 L 514.7675480833234 96.75126691285139 L 514.5312287271538 97.30001518937769 L 514.6173010066643 97.78168231583746 L 514.7095733365284 98.19311382141781 L 514.7276667229407 98.38027819268339 L 514.768077640118 98.73217641200085 L 514.810932518559 99.79398440320215 L 514.8335490820905 99.89781558141745 L 514.9519499903108 100.40163349569066 L 514.7850575578914 100.99408870632146 L 514.1100017551972 101.66524635275071 L 514.0863968015638 101.68898115610854 L 513.5411327982463 102.24017009440888 L 512.9473886712726 102.34399906549251 L 512.8900713266935 102.35470566680095 L 512.6719736512599 102.45166520892828 L 512.4670194420579 102.53731311705282 L 512.2158645106266 102.78535131525786 L 511.8294471436568 103.8522709468174 L 511.6225735784832 104.35265055665691 L 511.55951572481786 104.6689796445261 L 511.5118001751424 104.90845212303357 L 511.2719742617738 105.56060064736042 L 511.25886645590833 105.58316278626818 L 511.0154978117502 105.99390834692912 L 510.77313475496 106.70265100295025 L 510.7211954769336 107.30467992252996 L 510.6508802998 108.15116725784344 L 510.56335000570095 110.09781142514086 L 510.56629704410346 110.53532445313378 L 510.23313408653706 111.17389128192609 L 509.8734188821201 111.78779361487989 L 509.6653920522964 112.12017494934219 L 509.58691212872117 112.23664667841268 L 509.2939060310876 112.3757930027738 L 509.2801317844024 112.36553510016057 L 509.0470279624665 112.19322237038858 L 508.8843715112352 111.6988710188247 L 508.811534380417 111.32172073477095 L 508.75757752172836 111.19722112970983 L 508.680856971264 111.01952466610659 L 508.5086302931047 111.03690206568548 L 508.3063243130445 111.23178213527021 L 508.0724942960973 111.13901004418766 L 508.0155277442987 111.062321555473 L 507.91474339405096 110.92724345228146 L 507.81109403669814 110.95803483875623 L 507.7081434985792 111.17781849885817 L 507.371865011935 111.69444143169532 L 507.1242710824448 112.0117385815203 L 507.114986809521 112.02330004042838 L 506.6026188832244 112.62690120826527 L 506.35050410909423 112.7520737315975 L 506.1905025319153 112.95957293892246 L 506.133520455373 113.2364049288201 L 506.15928127866226 113.44459839808779 L 506.29792704884454 113.60925520555489 L 506.2599926195087 113.94312016650088 L 506.04150951957064 114.26419833923508 L 505.84152574479566 114.6169726173096 L 505.8070701307943 114.65588667491856 L 505.74506368245716 114.7251260922169 L 505.4391959058483 115.05241117113395 L 505.02178257846435 115.25647591937064 L 504.85086074980376 115.20876063844675 L 504.68366898874996 115.16468549325985 L 504.64152447155885 114.93991937635118 L 504.6075659180323 114.75246626219082 L 504.38971108963176 114.83270738372997 L 504.1586261131606 115.22653603236611 L 504.120648819637 115.29036355680702 L 504.0835943348088 115.35239810514572 L 503.7073777234246 116.07820471387237 L 503.1253072838343 117.40699817459947 L 503.001414367676 117.66145654430477 L 502.8842769165217 117.91669705625117 L 502.65381282422726 118.30612398905878 L 502.5950865793432 118.40872322198425 L 502.30437014456066 118.9045462171688 L 502.30192933523375 118.91135443318524 L 501.94076332553396 119.90123936032086 L 501.39368839110904 121.65492104334585 L 501.32071626066056 122.1698380404312 L 501.2567671627885 122.6221684511666 L 500.97079419818994 124.31614253336078 L 500.69351833273873 125.54511598329518 L 500.6860857341317 125.56890025142323 L 500.4402837274622 126.34794511262558 L 500.3463215104788 126.98269598390495 L 500.38399229733517 127.719907544643 L 500.26368493226727 128.16663207983416 L 500.083112325898 128.63570617386955 L 499.9270827212726 128.88302798059948 L 499.86987999702785 128.92314997210684 L 499.7732663813904 128.98960907768276 L 499.33730937707156 129.26982566375597 L 498.89176626054996 129.69595742369432 L 498.7184816521152 129.9173101457776 L 498.3491779714771 130.35363272610508 L 498.21270816582313 130.511006148094 L 497.7790971067353 130.99486050399904 L 497.6149771162756 131.17432251569483 L 497.520683250068 131.20034654545546 L 497.31860308743256 131.25444238859538 L 497.1921988091058 131.1641637464533 L 497.0011514611321 131.2653109678108 L 496.96121751749223 131.3001116426602 L 496.7061543652163 131.5219573499196 L 496.4532167530868 131.8689241128113 L 496.2728878708025 132.17125908908764 L 496.1461340841751 132.38065695402724 L 495.9224569713117 132.81595732081126 L 495.87071566655186 132.91520624879854 L 495.662761574465 133.3833887642553 L 495.57369493206863 133.59902971429506 L 495.4366674198069 133.46798556625185 L 495.4190298782504 133.4689145497976 L 495.12430509523654 133.48561652498125 L 494.90761814483335 133.6178624675264 L 494.86053803223365 133.64976410742807 L 494.1006906382229 134.78401368858215 L 494.0462224547467 134.87149259913724 L 493.23448801244507 136.1959880361477 L 492.376734427823 137.67205011160644 L 492.2805894510459 137.84722498419038 L 492.0987813039808 138.0518336617223 L 491.8698559326741 138.21337730006138 L 491.77573111154396 138.295438915545 L 491.5408291285903 138.47464975552884 L 491.22814969636386 138.68222988985252 L 490.84100871095666 139.04814390753228 L 490.71260834751337 139.15373971043664 L 490.4003771615576 139.379622869779 L 490.2232734790361 139.4861834805256 L 490.07595773675655 139.5699974394445 L 489.9666956362787 139.6291131304951 L 491.1574988285035 136.6169089733928 L 491.2996838339726 136.27146621731384 L 491.60169025610645 135.5394555722685 L 492.41078154164745 133.68360098903696 L 492.8393393710364 132.73578323547997 L 493.15175292516903 132.04365585085665 L 493.33278588081964 131.64210843296837 L 494.1019543181245 129.65732949204474 L 494.1735604828317 129.41656976843166 L 494.2602009771226 129.12514257406588 L 494.26085391984304 129.12294581918383 L 494.4701117774244 128.21499416268597 L 494.5093970611098 127.89019630204078 L 494.5946689318822 127.20322222771445 L 494.60195637286756 127.14557915955511 L 494.5489948242302 126.83277051331348 L 494.20928701213467 127.24942651731487 L 494.076255865101 127.41423150047736 L 493.7315792926324 127.84141982140034 L 493.681802777938 127.90350015190548 L 493.36925043289773 128.2934014774405 L 493.33205696478524 128.29782181522097 L 493.489751175914 127.39522819235879 L 493.5190562327018 127.2292841718426 L 493.6432108497036 126.68590262485596 L 493.82902136353687 125.70994031209052 L 493.99650732041147 124.91571845134031 L 494.0123898116117 124.84804541080568 L 494.3391709406812 123.5197600141339 L 494.48461021087905 122.92990319040011 L 494.61269588936915 122.25356729115131 L 494.9040199586032 120.82439410468726 L 494.92314042115106 120.73798675996967 L 495.0835887082678 120.01006344799386 L 495.1873550161119 119.53663160163106 L 495.4738989237966 118.30327876493689 L 495.5780429438407 117.89116324814188 L 495.61793677373305 117.75158006824442 L 495.73543466785145 117.34041315776699 L 496.37483116645876 115.71013641628014 L 496.3867197027957 115.68005536280727 L 496.55319906595855 115.28877691115972 L 496.8391355331626 114.59044861999531 L 496.9010833042906 114.43976859525402 L 497.1003334892549 113.97219444821688 L 497.15229086410824 113.76281847042162 L 497.0228301901807 113.85144387743276 L 496.87007539803324 114.04881617178626 L 496.76861809703547 114.17989695619305 L 496.693348977072 114.16508298738498 L 496.69846531049404 113.95112437484114 L 496.8179567987676 113.49433270172621 L 497.0627846258929 112.80808088170234 L 497.1763239155198 112.49003931291637 L 497.6667531861122 110.82263551313078 L 497.8940105678917 110.2554320609023 L 498.0909077115985 109.76447849848168 L 498.4120990713425 108.98762081577864 L 498.547663436244 108.79573718048805 L 498.8754389624814 108.3344692399825 L 498.94598092186135 107.83448221210612 L 499.0005634182633 107.52696843319802 L 498.9897776682329 107.47229856365473 L 499.03107267421717 107.3090443691884 L 499.04516792412903 107.27220846601875 L 499.1143509694227 107.09155443808301 L 499.251719366786 106.8731689645504 L 499.40569483814335 106.53766372481138 L 499.64255791593223 106.04297681619182 L 499.7568451100011 105.82091620733964 L 499.89723739020735 105.42596877779913 L 500.0505522966117 105.07697249186492 L 500.2585781124915 104.61857249154488 L 500.43966897153143 104.19337169382071 L 500.4632020899989 104.13808063057402 L 500.51942192577593 103.9577965438382 L 500.5242630102789 103.94227276275265 L 500.59538488579057 103.71421656118758 L 500.63208630124467 103.62222286908931 L 500.84534606653153 103.0900336929144 L 500.9785725294126 102.75538173757111 L 501.11605544507114 102.43684152607726 L 501.2008172614419 102.12358888232637 L 501.27309815575234 101.85780319686026 L 501.33880301768494 101.65794294647131 L 501.39040409933835 101.50112890589963 L 501.49397243155084 101.3143459826173 L 501.6272837914719 101.0684895215944 L 501.74247942028126 100.76091624857185 L 501.892222047268 100.37979103630857 L 502.00716068954233 100.08173444674301 L 502.11739835272897 99.82206720434 L 502.1930185431077 99.60086052325329 L 502.2711988319905 99.33407068583261 L 502.2921873451586 99.26303857281275 L 502.39638013913446 99.10769410841247 L 502.37719969545196 99.2108100573744 L 502.3673814324046 99.26509149401164 L 502.33356628163875 99.46699350103796 L 502.3317201295696 99.50469423181642 L 502.3247009462265 99.78739086475443 L 502.36913393264655 99.82858245865387 L 502.4555086052535 99.77757004045704 L 502.5490305820333 99.64506033317706 L 502.603520408305 99.56763589003238 L 502.72886916511 99.3659509972575 L 502.7696957687817 99.33272062558584 L 502.79693929041025 99.52747405285132 L 502.8037051927838 99.68647317639773 L 502.8067171851332 99.81898003256437 L 502.79531582694705 99.96385662089887 L 502.789445617271 99.98914443226079 L 502.7311198897652 100.24227538965938 L 502.7461550402337 100.29639730919511 L 502.91184906494397 99.92942964635925 L 502.9829688124662 99.8192723122423 L 503.01791324632626 99.76484380210144 L 503.0518413368512 99.7625591400616 L 503.06287116040033 99.76179548596578 L 503.07653069319815 99.76083573602882 L 503.14933901355863 99.72712578528785 L 503.2047266488526 99.63940385967555 L 503.25331061168623 99.56728441479531 L 503.3053011202055 99.47047070467836 L 503.5208277207774 99.01784865977393 L 503.54691878015024 98.964131277684 L 503.6812452001642 98.67943162424707 L 503.7768414146254 98.47248679756784 L 503.89337614919435 97.90103647683958 L 503.9375304470143 97.72055834614495 L 503.9746031573612 97.56796994674933 L 504.04532906308236 97.36045780830773 L 504.0646980083608 97.15546891520522 L 504.0706702709165 97.02485127534672 L 504.08411613301297 96.84555718249366 L 504.11698791494877 96.73599254823176 L 504.1625869509553 96.66938350590699 L 504.20861666808156 96.64307065669232 L 504.2590380607353 96.61424748647833 L 504.4868433221356 96.3067071911158 L 504.57828261659006 96.17353896816792 L 504.68555801754326 96.01587782082001 L 504.68984590142065 96.00954378992377 L 504.9248337240302 95.74035160181003 L 505.02909265431725 95.66422639728997 L 505.0541498141815 95.65954048300178 L 505.118361225135 95.64763523120266 L 505.17036659340897 95.57699423629799 L 505.21169824447213 95.40795945381394 L 505.29657976424835 95.25490013388098 L 505.45296460345355 95.09331438912824 L 505.6858993383599 94.83143612337166 L 505.7548216750257 94.75229903698427 L 506.0232910712653 94.34809505142806 L 506.05859462363117 94.29401712003656 L 506.200958847613 93.98711121098691 L 506.3465949915074 93.6097301956436 L 506.5163223632412 93.20214823272207 L 506.59416800096636 93.01483963905609 L 506.6096008704209 92.97769044716534 L 506.8638494804858 92.40892907139855 L 506.9630975662486 92.17980817952709 L 506.97442644364446 92.15371260163857 L 507.08869181042354 91.94360219955036 L 507.4519558343942 91.66180591640277 L 507.6828620948035 91.50398891664565 L 507.81724161733797 91.41121345683754 L 508.32850553793565 91.12113735579712 L 508.5570878341586 90.99256517652418 L 508.9320000920095 90.78414980242297 L 509.25209217793315 90.43070651853125 L 509.3565881878529 90.30739324321787 L 509.499755459005 90.13787625077529 L 509.69491441943927 89.94339781487422 L 509.92745083744654 89.72777830492521 L 509.98051025165523 89.68339810518901 L 509.9980276771821 89.66868433363508 L 510.25521210862115 89.62165833674882 L 510.67046592907184 89.50448136272479 L 510.69926391002343 89.49017266346792 L 510.72359417079247 89.47813344540977 L 511.27045890054364 89.19548200175784 L 511.5717857835585 89.03710931901924 L 511.59752067823325 89.0180460268831 L 511.7233599907499 88.92464465400303 L 512.6591278606749 88.18746790158902 L 512.6927744957358 88.1674629671997 L 513.2873107874636 87.81129048893268 L 513.4387853892929 87.9838494805854 L 513.4529071639101 87.97666222414469 L 513.7531580872615 87.8259447186509 L 514.2197191639946 87.30485122100288 L 514.4593449706579 87.083959955306 L 514.4774913391311 87.16092257793682 L 514.51435460829 87.1404947767937 L 514.6282018926574 87.07747366541793 L 514.9059412248661 86.83498161305599 L 514.9928174241294 86.83973969537396 L 514.9516815633056 86.95518462076853 L 514.9075775923852 87.08515537613908 L 514.957522351172 87.26209828012762 L 514.9849072630755 87.28250871999046 L 515.080360413405 87.35647648230142 L 515.1319357356301 87.39823168012971 L 515.3891879949476 87.259275671745 L 515.8833753472935 86.61780021021568 L 515.9923271689555 86.55130921875147 L 516.0830666811622 86.41052844080065 L 516.0946250731736 86.3926001743528 L 516.1280385207463 86.32320193812703 L 516.2257967008492 86.12023221349395 L 516.5371717402327 85.70409886216143 L 517.0242756455198 85.15820241539215 L 517.3368253382304 84.77387170557502 L 517.3625685625377 84.73521971050258 L 517.490470872007 84.54312741954308 L 517.6459698102648 84.38322822608163 L 517.7702539995116 84.30719426501496 L 517.9027026851379 84.15503323945238 L 518.0117468767014 83.96641145619901 L 518.0858967048541 83.86138853092584 L 518.1868853229441 83.7416768797354 L 518.2675315926213 83.65534474404288 L 518.3702942894558 83.5931081907286 L 518.4128006076546 83.63656118210288 L 518.4588549709317 83.68545001182434 L 518.5331372663943 83.9237956546168 L 518.6562056649709 83.95871404871544 L 518.7750218312506 83.82769613241513 L 518.9717874033806 83.55604803057446 L 519.016144874763 83.49233625806386 L 519.2733891706466 83.13588615710944 L 519.5212474740106 82.69984869592503 L 519.7093550926636 82.24652573445564 L 519.7446961832873 82.18599366333169 L 519.9839889103982 81.77748131434909 L 520.350599799051 81.30493406720836 L 520.8440102212417 80.81332710647214 L 521.1480697553513 80.5567815564821 L 521.4514875690453 80.30154912156019 L 521.7759022959372 80.0760457817619 L 521.8209002301721 80.12333416751582 L 521.9474795677302 80.07054498274456 L 522.0555146761565 79.99164269410448 L 522.1555778470636 79.9184986979093 L 522.4502664565728 79.6024087309431 L 522.8373019950947 79.1233691771302 L 523.0961974213299 78.69811991745571 L 523.102861304869 78.67872375724673 L 523.2262341204291 78.31582389543165 L 523.3656698933016 78.12588565935454 L 523.4784908080046 78.00715288939072 L 523.8056259746029 77.67635692752329 L 524.3322873621455 77.09790767889382 L 524.4820837455372 76.92312914572923 L 524.6135531743769 76.76989551545225 L 524.9048336950789 76.43093813510538 L 525.4903674055934 75.67643180017336 L 526.0054279422507 75.10342958163588 L 526.2282020920461 74.91406805846005 L 526.4695482602899 74.70817193140175 L 526.8828203998969 74.55873860893587 L 527.0892102472753 74.6003741948323 L 527.259756870608 74.62887195538175 L 527.2339738941158 75.00784494806419 L 527.1322420589813 75.16789494773138 L 526.7926396349294 75.70261826804821 L 526.6150055589385 76.0456722578808 L 526.7092444612065 76.02439722095298 L 526.9269598212493 75.86787342606573 L 527.2661848328104 75.58001303591782 L 527.3788450745235 75.50353777599545 L 527.4603195669755 75.44825119466657 L 527.5123230925251 75.46785609697105 L 527.4287394662824 75.62870250291627 L 527.1998862374807 75.92620513205938 L 527.1399460443073 76.01669987223278 L 526.9516588126946 76.29907298720505 L 526.7146080352203 76.65060041088297 L 526.3027952774846 77.24071056683215 L 526.2367756334688 77.32818435824608 L 525.8744334507144 77.80870782622804 L 525.4763858087252 78.35150481163684 L 525.3588000900255 78.63958953491456 L 525.3072068207666 78.76667414350749 L 525.0821827928363 79.32656615090065 L 525.0578294082419 79.38767701264408 L 524.9982792290411 79.73826029669524 L 525.1621207464823 79.750899569378 L 525.3203419617695 79.70737864146388 L 525.40826979616 79.68345867490329 L 525.5461896378948 79.60350305004303 L 525.7157769367816 79.50471955767394 L 526.163116784886 79.13694106568106 L 526.4623944621103 78.88473740430517 L 527.6060135095929 77.95670432364442 L 528.0403592202815 77.66280797892861 L 528.5637823860498 77.3055747483202 L 529.5657509287728 76.76462236021497 L 529.7714812577772 76.6515851854115 L 529.8589731853874 76.54590446893414 L 530.3539471398401 75.9695920215623 L 530.9177064528944 75.64027431923074 L 531.1871053830226 75.51860270245598 L 532.098346210805 75.18378924148595 L 532.1221771488567 75.17826152632445 L 532.5081276963699 75.09096554773191 L 532.7055960367845 75.04795754954918 L 533.0325240162432 75.012664175815 L 533.416425887624 75.03307388819024 L 533.5028731145778 75.04282925732198 L 533.5793261443382 75.04951385140164 L 533.6735637513069 75.05284824900144 L 533.7799077100074 75.05651275536584 L 533.7856537020425 75.0701675195746 L 533.8104330583315 75.12826856454424 L 533.7435100290579 75.21253981917278 L 533.6390754356339 75.24916248360685 L 533.5066264372863 75.29562157559408 L 533.4261909568886 75.35293171772318 L 533.5051039085856 75.38542238943981 L 533.615823078846 75.3815194438277 L 533.8232547117768 75.37410998905521 L 534.5380785126844 75.28132602184584 L 534.8939127105245 75.24089836594767 L 535.003190913715 75.22799528588985 L 535.3284381531637 75.20946238253194 L 535.4881573593228 75.1408782672678 L 535.7037019596435 75.08284785982428 L 535.7308628360713 75.07521842199733 L 536.1182187202754 75.09456257628767 L 536.2663909357682 75.12132678704089 L 536.3752574681927 75.14126711099969 L 536.539444313222 75.17177812988055 L 536.8930053417491 75.22666409654104 L 537.6123964557913 75.2717380466529 L 538.0088910074802 75.40329186128292 L 538.2215903425974 75.49312581393484 L 538.57970519117 75.64943656602868 L 538.8452972200214 75.79897768048721 L 538.9425168160648 75.83810438159469 L 538.6622063517035 75.81777396369488 L 538.2543115451413 75.70019233056689 L 538.2507804930615 75.69783362407593 L 538.0842986108526 75.58762870471698 L 538.0155449282852 75.56653667352478 L 537.7123282124239 75.58550572060653 L 537.1249947751307 75.57542420560497 L 536.4206129548713 75.6287277268072 L 536.2618686869325 75.64126379539765 L 536.2886302266531 75.70986565606839 L 536.4439187608743 75.80141844099424 L 536.9011172497543 76.07139363373162 L 536.9449244088954 76.1046154690894 L 537.0599710569209 76.18943114933344 z" />

</svg>