<?xml version="1.0" encoding="UTF-8" standalone="no"?>
<svg
    version="1.1"
    x="0px"
    y="0px"
    width="842px"
    height="595px"
    viewBox="0 0 842 595"
    id="svg8287">
    <metadata
        id="metadata8293">
    </metadata>
    <defs
        id="defs8291" />
    <g
        id="PeopleMap"
        transform="matrix(1.0776717,0,0,1.4870562,-33.444289,-44.238796)">
        <path
            d="m 634.1385,226.21766 0.25383,-1.00885 0.57838,-3.30347 0.40799,-2.61 0.0143,-1.65105 0.0299,-1.25052 0.0309,-1.1212 -0.0955,-0.69573 -0.20474,-1.25451 -0.0402,-0.18538 -0.19411,-0.89602 -0.18916,-0.4459 -0.0511,-0.64331 -0.12006,-1.50162 -0.38521,-2.58652 -0.189,-1.21528 -0.0342,-0.12893 -0.64472,-2.39399 -0.62817,-2.54861 -0.30786,0.0228 -0.0998,-0.25027 -0.14815,-0.3974 -0.1088,-0.0125 -0.20342,0.31052 -0.0409,0.0601 -0.0801,0.11536 -0.30666,-0.24673 -0.049,0.007 -0.16932,0.0257 0.0234,1.15115 0.0711,1.23454 -0.0946,0.42582 -0.6036,1.76237 -0.0437,0.49895 -0.0803,0.78809 0.0891,1.33851 0.20298,1.77936 -0.21863,1.00853 -0.39758,0.85302 -0.0714,0.15397 -0.58719,0.61347 -0.46451,-0.12645 -0.23564,-0.79279 -0.11577,-2.06648 -0.14682,-1.02803 -0.14853,-0.21225 -0.1568,0.31897 -0.12386,1.22938 -0.0994,1.09903 -0.0607,0.14516 -0.0647,-0.12447 -0.0163,-0.032 -0.0471,-0.55128 0.15574,-4.10421 0.0332,-0.74634 -0.27889,-3.48058 -0.0776,-1.29145 0.0318,-0.5242 0.079,-1.10143 -0.0523,-3.0295 0.51512,-1.88718 0.0133,-0.40828 0.0117,-0.31507 0.005,-0.1252 0.0776,-0.65078 0.19451,-0.0665 0.89197,0.59431 0.25896,-0.17389 0.23784,-0.77624 0.36037,-0.53238 0.21108,-0.0652 0.14316,-0.0406 0.2938,0.0616 0.38366,0.97896 0.12932,-0.28795 0.0627,-1.24371 0.12263,-1.1654 0.0908,-0.52442 0.24022,-0.042 0.30915,0.23609 0.002,0.002 0.10765,-0.11946 0.0942,-0.32187 0.01,-0.12752 0.11386,-1.37311 -0.0508,-3.49372 -0.12974,-1.62803 -0.009,-0.10259 -0.0174,-0.19251 -0.31177,-2.01935 0.096,-0.11684 0.91577,1.92427 0.22587,0.27123 0.11076,0.13301 0.1516,-0.13869 0.003,-0.5896 -0.33228,-0.89158 -0.46645,-0.9578 -0.54224,-1.09607 -1.69347,-3.10684 -0.64664,-1.0248 -0.67534,-1.01395 -0.13199,-0.19783 -1.94473,-1.84348 -0.37596,-0.32064 -1.40239,-1.20765 -0.57043,-0.58765 -0.38861,-0.43501 -0.35977,-0.40153 -1.43541,-0.88846 -0.28795,-0.1398 -1.32156,-0.64199 -0.58137,-0.46617 -0.0495,-0.04 -0.28906,-0.17024 -0.56313,-0.2444 -0.91372,-0.77972 -0.0563,-0.0428 -0.63375,-0.73646 -0.52338,-0.79274 -0.55863,-0.49947 -0.19628,-0.17777 -0.16222,-0.01 -0.12235,-0.23644 -0.1304,-0.56136 -0.1065,-0.71845 -0.17523,-2.18936 -0.0928,-1.10355 -0.77943,-4.94306 -0.0287,-0.33538 -0.11819,-1.40054 -1.04546,-4.05793 -0.25888,-0.7768 -0.22476,-0.1139 -0.0918,0.44056 0.0356,0.85312 0.20283,1.00856 -0.10594,1.00057 -0.0439,0.0164 -0.39249,0.13807 -0.56951,-0.57842 -0.45388,-0.65121 -0.58103,-1.01577 -0.0282,-0.0944 -0.35713,-1.25826 0.004,-0.25422 0.0221,-1.24554 -0.0778,-0.7418 -0.14133,-0.2291 -0.13126,-0.0461 -0.1557,0.0896 -0.22377,0.33832 0.0217,0.32481 0.1044,0.67832 -0.0919,0.49184 -0.15619,0.0956 -0.25349,-0.13455 -0.49854,0.27418 -0.0478,-0.023 -0.38473,-0.18414 -0.27853,0.0625 -0.26433,-0.037 0.0945,-0.77331 -0.12804,-0.53906 -0.42297,-0.54225 -0.39387,-0.14571 -0.29433,-0.10461 -0.4581,0.17434 -0.41575,0.57269 -0.0268,0.18191 0.26395,0.0205 0.31217,0.19293 -0.0375,0.29423 -0.17836,0.29382 -0.66605,0.77915 -0.46374,0.80765 -0.45543,0.58564 -0.51672,0.66016 -0.80614,1.37577 -0.27981,0.95999 -0.29876,1.12453 -0.0272,0.31745 -0.0996,1.17162 0.0762,0.58746 0.0108,0.0836 0.0364,0.2831 0.25876,0.53425 0.80961,0.18672 0.93959,1.59623 0.68148,2.28212 0.0573,0.10171 0.28499,0.53568 0.65396,0.62436 0.93463,-0.25361 0.60583,-0.16427 0.1504,0.65677 0.0111,1.87256 0.2449,0.58199 0.74903,0.68165 0.0148,0.64591 -0.27414,0.70532 -0.41711,0.61923 -0.69562,0.50761 -0.0322,0.0148 -0.61488,0.27948 -0.63079,-0.0263 -0.94869,0.13621 -0.7341,0.1981 -0.0254,0.007 -0.13523,0.82699 -0.45854,2.80122 -0.35717,1.43485 -0.20743,0.0288 -0.53885,-0.64114 -0.18716,0.16492 -0.25617,2.11534 -0.12489,0.96379 -0.19979,1.41661 -0.10549,1.06621 -0.0578,0.79602 0.30721,1.64594 0.1594,0.46147 0.37464,1.04028 0.58298,0.58276 0.46203,-0.49185 0.43976,0.60713 0.32777,0.91814 0.21465,0.61854 0.50574,0.60902 0.29668,0.36392 1.08061,0.3956 0.63752,1.1568 0.10185,1.04295 -0.0272,1.07367 -0.0511,2.43277 -0.0186,0.31726 -0.0637,1.07027 -0.54644,3.56647 -0.20073,2.69579 -0.0276,0.38128 0.32655,1.52611 0.20118,0.63831 0.18302,0.50092 0.56195,1.28722 0.40564,1.28198 -0.088,2.23214 -0.0303,0.84396 0.19389,0.87137 0.6354,0.73794 0.0984,0.0915 0.56884,0.53494 0.25186,0.59204 -0.4396,3.06773 0.13904,1.56735 0.0638,0.73895 0.28985,2.23028 0.37247,3.65201 0.0701,0.4002 0.0569,0.91971 0.1244,0.53873 0.55769,2.48758 0.98035,6.16283 0.0414,0.67251 0.10417,1.68828 0.0814,2.45292 0.11763,3.47448 -0.53925,-0.28243 0.34433,1.08366 0.37811,1.20114 0.32325,1.54708 0.31141,2.00944 -0.50213,-0.17154 -0.40774,-0.34479 -0.4491,-2.02592 0.10772,1.49987 -8e-4,0.0506 0.0237,0.33417 -0.32247,-0.62611 -0.28569,-0.62013 -0.19907,-1.43927 -0.27997,-2.91233 -0.20647,-2.18926 -0.11086,-0.75911 -0.13585,-0.65454 -0.24502,-0.5873 -0.19488,-1.50092 0.29153,4.8107 0.0886,1.04181 0.45869,2.58621 0.0851,0.98736 -0.24097,-0.11485 -0.0253,-0.007 -1.00095,-2.79157 -0.15906,-0.80679 0.12471,1.18552 0.25439,1.22555 -0.53847,-0.98286 -0.20283,-0.48031 -0.26572,-1.0259 -0.14074,-1.74984 -0.14477,-1.71682 -0.19402,-2.64492 -0.23956,-2.39597 -0.57603,-2.10993 -0.0778,-0.2799 -0.33307,-1.03158 -0.17077,-0.52148 -0.51828,-2.66609 0.41786,2.74004 0.0417,0.15712 0.27342,1.04027 0.37161,1.05851 0.10637,0.40386 0.36828,1.41635 -0.009,1.39152 -0.006,0.0556 -0.0734,0.62327 0.0866,1.87532 0.0645,1.05204 -0.0989,1.22306 -0.14053,0.28055 -0.0772,0.19805 -0.67543,-0.71184 -0.46507,-0.39775 -0.048,0.0867 -0.0789,0.14148 0.11047,1.00826 0.0771,0.79867 0.51002,1.87291 0.56333,1.23961 0.4835,1.06591 1.44179,2.88447 0.7827,1.52207 0.23037,0.44592 0.24068,0.41127 0.11917,0.37559 -0.0197,0.34144 -0.0351,0.44285 -0.005,0.13273 0.065,0.40874 -0.0117,0.22295 -0.24422,0.0423 -0.42201,0.28571 -0.20495,0.62305 -0.0148,0.0398 -0.22469,0.5788 -0.2733,-0.64634 -0.0185,-0.0416 -0.18232,-0.13091 0.20753,0.6844 0.0459,0.16583 -0.0251,0.41828 -0.0126,0.0405 -0.0498,0.17539 -0.15792,0.14616 -0.75433,0.27147 -0.27624,0.0316 -0.64519,0.17061 -0.44231,-0.14923 -0.0148,-0.0142 -0.40245,-0.38428 0.0267,-0.18076 0.005,-0.03 0.24878,0.005 -0.17622,-1.07722 -0.48935,-0.62899 -0.36838,-0.39466 -0.93425,0.3329 -0.0227,0.24547 -0.007,0.10358 -0.008,0.64204 0.23338,0.41143 0.22011,0.17111 0.0666,0.0518 0.59005,-0.0493 0.38688,0.51477 0.0897,0.3189 -0.70726,0.24672 -0.0209,0.0299 -0.52845,0.32473 -0.25108,0.8213 -0.0783,0.41533 0.0507,0.51528 -0.0216,0.30314 0.003,0.23992 -0.002,0.55974 -0.1,0.95219 -0.13947,0.18115 -0.17005,0.20174 -0.64262,1.17173 -0.24295,0.20585 -0.1556,0.16732 -0.11297,0.0235 -1.17951,0.35985 -0.43755,0.23573 -0.2912,0.32729 -0.27063,0.45873 -0.31276,0.53358 -0.0629,0.22294 -0.48356,1.07428 -0.37797,0.10024 -0.34809,0.0363 -0.34416,0.13699 -1.06157,0.40308 -0.54825,-0.12029 -0.4082,0.13585 -0.52515,0.19941 -0.0197,0.20093 0.007,0.44573 0.0435,0.2113 0.22194,0.35282 0.18451,0.22031 0.048,0.0571 0.0478,0.0569 0.0925,0.21023 -6.3e-4,0.3415 0.002,0.0656 0.007,0.13501 -0.1732,0.43761 -0.38025,0.31042 -0.0887,0.0578 -0.73911,0.14102 -1.07503,0.38166 -0.30267,-0.0588 -0.74861,-0.32928 -1.67295,-0.79314 -0.70749,-0.12569 0.0362,0.43567 0.0201,0.21239 0.0991,0.62162 0.17358,0.69392 -0.24856,0.30467 -0.0142,0.15831 0.0152,0.0885 -0.48293,-0.28512 -0.22398,-0.15423 -0.27023,-0.18992 -0.25081,-0.10903 -0.74859,-0.74115 -0.72421,-0.54822 -0.56467,-0.40914 -1.00213,-0.49255 -1.2384,-0.58676 -0.20495,0.0221 -0.18211,0.0391 0.33737,1.16695 0.1017,0.31527 0.1088,0.29268 0.9636,1.18408 0.23853,0.18176 1.1527,0.87316 0.57084,0.36487 0.37531,0.23759 0.1639,0.11986 0.1256,0.0919 0.18849,0.21666 -0.006,0.005 -0.0371,0.0352 -0.02,0.0215 0.0176,0.10161 0.41507,0.35408 0.21289,0.22979 0.11332,0.12356 0.24976,0.27556 0.17044,0.24463 0.0847,0.23501 0.20133,0.29697 0.15974,0.29918 -0.1517,-0.13613 -0.14907,-0.196 -0.0466,-0.0606 -0.3205,-0.28937 -0.0904,-0.0807 -0.28296,0.20551 0.0761,0.07 0.21006,0.19479 0.25882,0.13669 0.49075,0.26834 0.17741,0.2698 0.004,0.54105 -0.0467,1.47861 -0.0709,0.73175 -0.24321,0.60591 -0.0532,0.1194 -0.0845,0.19408 -0.39452,0.66762 -0.19331,0.2728 -0.17688,0.37766 -0.6061,0.57283 -0.39104,0.46853 -0.12277,0.1303 -0.21296,0.23763 -0.14036,0.29212 0.16476,0.21938 -0.13235,0.0664 -0.24599,0.12453 -0.4439,0.17021 0.76864,-0.15604 0.0728,0.0373 0.12257,0.0616 0.0337,0.12327 -0.1084,0.2544 -0.24052,0.53583 -0.0841,0.1343 -0.79191,0.75816 -0.0514,0.0346 -0.28538,0.0826 -0.62793,0.18444 -0.9629,0.26269 -0.76347,0.17462 -0.66447,0.16134 -1.36626,0.46594 -1.05683,0.36369 -1.47104,0.59654 -1.35743,0.6578 -0.52381,0.48598 -0.88408,0.42234 -1.85638,0.8887 -1.31361,0.63937 -0.51539,0.29516 -0.37358,0.22039 -0.53576,0.41316 0.10596,0.0843 0.31742,0.004 0.5818,-0.18593 0.12259,-0.0401 1.56152,-0.49231 0.66181,-0.1385 0.007,10e-4 0.19382,0.0326 -1.62055,0.38144 -0.0507,0.0115 -1.13765,0.42992 -1.0452,0.40421 -0.54753,0.24609 -2.22735,1.02537 -3.20824,1.38523 -0.49124,0.19479 -0.87073,0.37183 -0.76652,0.45787 -0.009,0.01 -0.79983,0.90781 -0.31144,0.30917 -0.0491,0.049 -0.74689,0.26869 -0.43633,0.0643 -2.04483,0.31893 -0.63643,-0.002 -0.74085,-0.01 -0.73681,-0.006 -0.80701,0.0774 -2.48552,-0.60562 -0.13642,-0.0589 -0.30081,-0.12935 -2.53703,-1.0584 -1.20158,-0.73064 -0.45678,-0.32726 -0.79515,-0.52985 -3.40739,-1.97501 -0.64046,-0.30069 -0.0703,-0.0321 -0.15048,-0.0682 -1.21371,-0.92345 -0.26047,-0.31456 -0.30634,-0.15683 -0.48151,-0.14818 -0.27133,-0.14931 -0.12051,-0.0819 -1.35132,-0.91641 -0.23761,-0.73912 -0.0866,-0.27845 -0.4772,-1.19778 0.42387,0.19826 0.66547,0.48227 0.4115,0.53723 0.0228,0.39071 0.0181,0.3193 0.63858,0.14601 0.5744,-0.0126 -0.32264,-0.37727 -1.25262,-1.41259 -0.66929,-0.33671 -0.43943,-0.29764 -0.27485,-0.0981 -0.1465,-0.16382 -0.15282,-0.16464 -0.0417,-0.32933 0.0998,-0.13442 -0.93379,-0.69491 -0.0472,-0.048 -0.31288,-0.30578 -1.54704,-1.50142 -0.278,-0.48015 -0.44275,-1.32651 -0.0295,-0.0748 -0.005,-0.007 -1.09974,-1.43947 -0.47047,-0.27056 -0.40394,-0.21765 -1.18662,-1.26242 -0.35801,-0.24169 -0.3811,-0.23713 -0.3111,-0.17965 -1.20688,-0.75825 -0.91487,-0.39041 -0.23304,-0.26057 -0.30022,-0.52016 -0.21063,-0.32055 -1.41605,-1.83312 -0.33829,-0.35708 -0.85192,-1.57513 -0.0758,-0.12987 -0.46819,-0.74181 -0.25327,-0.61088 -0.0165,-0.0713 -0.19772,-0.76374 -0.47119,-1.49363 0.0234,-0.37848 -0.002,-0.0108 -0.0841,-0.40419 -0.6094,-0.90766 -0.57041,-0.47891 -0.53378,-0.51326 -0.17247,-0.6966 0.0636,-0.27234 -0.2234,-0.52534 -0.19534,-0.38733 -0.0843,-0.15141 -0.0775,-0.47295 -0.43966,-0.42203 -0.54415,-0.36741 -0.19418,-0.0899 -0.40615,-0.18288 -1.0795,-1.09262 -0.28775,-0.26676 -0.0481,-0.0421 -0.43484,-0.48306 -0.26415,-0.25781 -0.42688,-1.31623 -0.65802,-0.47959 -0.0497,-0.0341 1.26924,-0.0297 -0.68824,-0.48021 -0.32863,-0.31064 -0.28709,-0.25561 0.63476,-0.5152 -0.82371,-0.0594 -0.30405,-0.32896 -0.0493,-0.0499 -0.12402,-0.27549 -0.39493,-0.7402 -1.14238,-1.16196 -0.13083,-0.35127 -0.0915,-0.23453 -0.84915,-2.03554 -0.0111,-0.0875 -0.0575,-0.42744 -0.24929,-1.73621 -0.38043,-2.00464 -0.003,-0.0153 -0.84359,-1.74667 0.0446,-0.16736 0.1,-0.37361 -0.83604,-1.57514 -0.0108,-0.0637 -0.21064,-1.01987 -0.0421,-0.88249 -0.0273,-0.10259 -0.002,-0.009 -0.12559,-0.44782 0.009,-1.17677 -0.27488,-0.31811 -0.0141,-0.0159 0.003,-0.22679 0.35943,-0.59217 0.85741,-0.89603 0.13803,-0.14189 0.3591,-0.49983 0.10193,-0.14039 -0.0852,-0.77589 -0.076,0.0832 -0.88272,0.91419 -0.25397,0.12564 -0.45256,0.22372 -0.0376,-0.13897 -0.12563,-0.43318 0.20501,-0.84875 -0.0313,-0.18737 0.2476,-0.3248 1.54732,-0.22115 0.20876,-0.029 -0.19872,-0.0124 -1.66777,-0.0755 -0.0311,-9.2e-4 -0.1652,-0.24837 -0.0181,-0.20766 0.56048,-0.53681 -0.58649,-0.17549 0.21292,-0.82215 0.056,-0.19161 -0.0213,-0.1622 0.0341,-0.16505 1.00827,-1.8484 0.0278,-0.0455 1.93572,-2.89726 0.60811,-0.9839 0.35098,-0.86819 0.21319,-0.96799 0.0369,-0.16778 -2.6e-4,-0.83349 0.20259,-1.13206 0.005,-0.27121 -0.43988,0.085 -0.20264,-0.19785 -0.0287,-0.0583 0.17858,-1.58624 0.4552,-0.76106 0.36768,-0.45965 -0.40298,0.32936 -0.25491,0.10707 0.55007,-0.82008 0.20874,-0.29795 0.86659,-0.89793 1.29125,-1.00041 0.4575,-0.36588 0.76419,-0.73777 -1.06651,0.81549 -0.0963,0.0525 -0.95787,0.52189 -1.49946,0.61592 -0.35352,0.16702 0.74541,-1.92101 0.0829,-0.13356 0.0381,-0.0613 0.34356,-0.54747 0.42914,-0.49542 -0.5272,0.34021 -0.0648,0.0162 -0.47448,0.11811 0.57881,-2.04805 0.3741,-0.44574 0.15418,-0.18307 0.49849,-0.29162 0.69907,-0.51986 -0.34274,-0.0357 -0.28969,-0.0305 -0.54539,0.10516 -0.09,0.017 -0.85825,0.66584 -0.0414,0.004 -0.63047,0.0588 -0.47182,0.22198 -0.34109,0.1605 0.23072,0.10385 0.0478,0.0218 0.22929,0.46852 -0.35903,1.19862 -0.26405,0.77351 -0.008,0.0112 -0.45112,0.6295 -0.38679,0.81586 -0.0809,0.34093 -0.0633,0.27557 -0.19538,0.49784 0.22577,0.11352 0.23087,0.0245 0.0723,0.35419 0.0344,0.41338 0.008,0.12796 -0.18987,1.20912 -0.0116,0.0387 -0.0355,0.11895 -1.04408,3.40814 -0.33678,0.81753 -0.0647,0.15439 -0.66573,1.0795 -1.50369,2.49894 -0.21875,0.39535 -0.69352,0.93945 -0.84544,1.02924 -0.23694,0.27669 -0.65306,0.76299 -0.62784,0.51221 -0.33244,0.032 -0.39157,0.0454 -0.77329,-0.16006 -0.4456,-0.27985 -0.2456,-0.22643 -1.73606,-2.48856 -0.21949,-0.43285 -0.1851,-0.33657 -0.0718,-0.12406 -1.28062,-3.2552 -0.11868,-0.19143 -0.005,-0.007 -1.04848,-1.25824 -0.84543,-1.79926 -0.0937,-0.19718 -0.16867,-0.34424 -0.56814,-1.06348 -0.48295,-1.63083 -0.007,-0.11587 -0.0197,-0.30169 -0.0215,-0.32222 0.0986,-0.78962 0.0701,-0.10674 0.18942,-0.27761 0.21746,0.0357 0.1525,0.52012 0.14465,0.24522 0.13237,0.0756 0.35684,-0.43743 0.92395,-0.97815 0.55027,-0.18903 0.49529,-0.60764 0.03,-0.0374 0.4513,-0.0959 1.15214,-1.20895 0.40108,-0.23119 0.002,-0.001 0.50182,-0.39486 0.1873,-0.40825 1.10761,-2.5271 0.91396,-2.21797 0.0152,-0.02 0.007,-0.01 0.42942,-0.56686 0.046,-0.44436 -0.017,-0.54309 -0.25776,0.24767 -0.0541,0.052 -0.29242,0.67842 -0.26111,0.77224 -0.0136,0.0307 -0.20652,0.46412 -0.41459,-0.13233 -0.031,0.0218 -0.2979,0.21451 -0.40949,0.46469 -0.19737,0.25306 -1.3141,1.69136 -0.69962,1.28085 -0.0883,0.0858 -0.31771,0.30889 -1.40497,0.0881 -0.56484,0.0556 -1.01438,-0.56997 -0.0852,-0.0354 -0.87304,-0.261 -0.72053,-0.97382 -0.005,-0.0267 -0.33053,-1.37752 -0.0893,-0.2993 -0.30102,-2.13252 0.33205,-0.92169 0.60949,-1.2232 0.56911,-1.16538 0.0993,-0.19731 0.86181,-1.71012 -0.76235,1.12323 -1.1e-4,1.9e-4 -0.87009,1.42189 -0.46833,0.86835 -0.0876,0.20945 -0.48358,1.26593 -0.26242,0.35717 -0.19733,0.27184 0.0319,-1.11151 0.005,-0.40564 0.12044,-1.5014 0.47316,-0.82189 0.31796,-0.53888 0.003,-0.005 0.55021,-0.70198 0.55835,-0.65501 0.45895,-0.40018 0.26038,-0.22283 0.38175,-0.32655 0.22836,-1.1149 0.52739,-2.49144 0.11019,-0.32637 0.11558,-0.2353 0.10403,-0.14793 0.065,-0.0176 0.012,0.37452 0.1481,-0.1537 0.20785,-0.40516 0.29683,-0.10147 0.081,-0.10231 0.21714,-0.27395 0.23927,-0.0669 0.47429,-0.33089 0.53405,-0.41338 0.33491,-0.25908 0.48131,-0.24428 0.249,0.30153 0.28549,0.3438 0.0307,-0.009 0.35089,-0.0975 0.54572,-0.32227 0.37599,-0.37424 0.22191,-0.52583 0.0965,-0.27172 0.0746,-0.21197 0.80592,-0.91985 0.63362,-0.60299 0.18139,-0.17658 0.11612,-0.0695 0.11051,-0.0663 0.006,0.0247 0.067,0.24511 -0.0525,0.50413 0.11031,0.44672 0.41911,0.22955 0.29958,0.0259 0.27127,-0.11171 0.19935,-0.18244 0.004,-0.004 0.44518,-0.8373 0.23179,-0.21646 0.33087,-0.0482 0.38233,-0.44101 0.008,-0.14605 0.008,-0.14092 -0.23506,-0.0901 -0.19209,-0.36813 0.0458,-0.33988 -0.0213,-0.46313 0.0941,-0.46549 0.2013,-0.38027 0.32086,-0.39886 -0.0889,-0.64431 -0.039,-0.16682 -0.24095,-1.02309 -0.22105,-1.63773 -0.15459,-0.68932 -0.13423,-0.56575 -0.0161,-0.0658 -0.4757,-1.10705 -0.20391,-0.87563 0.1092,-0.80893 0.18494,-1.37094 0.0114,-0.4721 -0.16687,-0.23061 -0.25557,-0.0787 -0.36942,0.37588 -0.29873,0.1638 -0.0227,0.007 -0.59941,0.19086 -0.27795,-0.12572 -0.3847,-1.57799 -0.12654,-0.52582 -0.001,-0.69681 0.002,-0.21538 0.1427,-0.97471 0.0575,-0.19773 0.47579,-1.62206 0.0134,-0.0661 0.31504,-1.56038 0.2221,-1.61821 0.005,-0.43286 -0.10719,-0.46793 -0.13246,-0.15722 -0.10406,-0.12408 -0.24494,0.071 -0.49896,0.14426 -0.80022,-0.15798 -0.051,-0.0597 -0.51112,-0.57911 -0.40131,-0.3585 -0.0858,-0.31295 0.004,-0.41241 0.28383,-1.84368 0.0254,-0.16023 0.43571,-2.24935 0.21809,-0.7043 0.31305,-0.77323 0.22223,-0.53424 0.26767,-0.58542 0.0579,-0.12847 0.007,-0.0163 0.99292,-2.32561 1.03185,-2.48698 0.15939,-0.39754 0.26396,-0.70773 0.42843,-1.10979 0.27315,-0.50719 0.25371,-0.43452 0.35213,-0.5416 0.38419,-0.51846 0.01,-0.003 0.14376,-0.0482 0.16964,-0.0568 0.0131,0.0117 0.25215,0.22836 0.18029,0.37322 -0.0343,0.90445 0.0977,0.60681 0.14902,0.41525 0.23174,0.17527 0.0266,-0.009 0.29102,-0.0956 1.23492,-1.32214 0.0865,-0.0838 0.43969,-0.2903 0.9653,-0.26722 0.0735,-0.0207 0.79886,-0.47586 0.77197,-0.42909 0.0566,-0.63683 0.005,-0.0637 0.0139,-0.16429 0.27638,-1.30512 1.05202,-1.5975 0.15762,-0.3876 0.13704,-0.35156 0.34032,-1.39048 0.0764,-0.24732 0.28728,-0.978 0.23506,-0.47887 0.0223,-0.0468 1.29402,-1.30809 0.0965,-0.0925 1.51951,-1.14172 0.25001,-0.53515 0.0667,-0.17331 0.0266,-0.0699 0.94483,-2.20741 0.38564,-0.92223 0.27921,-0.72958 0.1661,-0.53315 0.37956,-1.40902 0.0552,-0.20626 0.077,-0.29489 0.22668,-0.92624 0.4531,-0.32118 1.09215,-0.4755 0.16138,-0.0943 0.67476,-0.40523 0.48793,-0.55644 0.13651,-0.24276 0.14463,-0.26195 -0.0826,-0.5267 -0.25882,-0.59341 0.0737,-0.32798 0.0645,-0.32463 0.67718,-0.66276 0.1592,-0.2607 0.0675,-0.11349 1.01602,-1.54722 0.82521,-0.86056 0.27279,0.0176 0.17725,-0.095 0.0704,-0.0382 0.58227,-0.32766 0.90183,-0.53952 -0.0553,-0.28195 -0.11929,-0.36603 -0.53785,-0.18202 -0.16224,-0.43442 0.13071,-0.61181 0.0277,-0.1013 0.45095,-1.50481 -0.0586,-0.43944 -0.24013,-0.83027 -0.14953,-0.57676 0.1293,-0.37508 0.22887,-0.33375 0.5828,-0.46233 0.73652,-0.40766 0.20033,-0.0879 0.58038,-0.25956 1.72958,-0.75343 0.44723,-0.13073 0.0824,-0.0245 0.92783,-0.35392 0.62555,-0.62684 0.1206,-0.50646 -0.21111,-0.29248 -0.35407,-0.2667 -0.14005,-0.10495 -0.76517,-0.20582 -0.17499,-0.0463 -0.84275,-0.20596 -1.47277,0.24262 -0.14375,-0.0299 -0.55587,-0.15004 -0.16616,-0.18862 0.0213,-0.76224 0.26128,-0.98142 0.0944,-0.35458 -0.20323,-0.0838 -0.34259,0.2013 -0.72544,-0.0503 -0.53903,0.0839 -0.37722,0.0586 -0.30819,-0.31224 0.22978,-0.46754 0.0215,-0.59111 -0.0694,-0.55092 -0.13147,-0.10043 -0.43264,-0.0793 -0.59928,-0.42377 -0.0198,-0.0286 -0.38526,-0.54076 -0.009,-0.0154 -0.23037,-0.36854 -0.0585,-0.2644 0.0458,-0.18243 0.37994,-0.51015 0.0221,-0.0296 0.49718,-0.75352 0.17382,-0.49172 0.0487,-0.137599 0.0955,-0.449645 -0.0827,-0.31563 -0.33119,-0.36177 -0.12461,-0.103665 -0.24184,-0.19837 -0.12472,-0.282447 0.0598,-0.456337 0.24197,-0.595112 0.14108,-0.126586 0.1976,-0.17779 0.22822,-0.206051 1.001,-0.569598 0.34931,-0.580019 0.0433,-0.397091 -0.247,-0.07317 -0.66268,0.114693 -0.41765,0.02129 -0.62357,0.03308 -0.13846,-0.183765 -0.0632,-0.268113 0.055,-0.287136 0.29078,-0.371191 0.12905,-0.171201 0.22469,-0.298779 0.0325,-0.396144 -0.22245,-0.373411 -0.67917,-0.13511 0.0165,-0.394977 0.20162,-0.372312 0.37672,-0.546966 0.2582,-0.332345 0.0433,-0.05593 0.73492,-1.044482 0.5752,-0.263288 0.0568,-0.02593 0.77644,-0.38584 0.85927,-0.373973 0.65293,0.01891 0.55343,0.01374 0.58938,0.02788 1.06698,0.08178 0.12832,0.0095 0.98219,0.08722 0.98122,-0.02642 0.0584,-0.0064 0.35142,-0.03827 0.42526,0.2072 1.06551,0.376172 0.20837,0.04443 0.15517,0.03317 0.5237,0.111731 0.63405,-0.03424 0.33021,-0.15097 0.5447,-0.257134 0.082,-0.03957 0.48106,-0.402588 0.67397,-0.426368 0.82114,-0.07939 0.2399,-0.09312 1.59331,-0.517622 0.31571,0.09894 0.36339,0.02943 0.1514,0.01238 0.64254,-0.298049 0.32802,-0.352766 0.0526,-0.191513 0.0389,-0.03489 0.10718,-0.09857 0.6019,-0.212975 0.20173,-0.115434 0.3607,-0.223841 0.12753,-0.241014 0.0903,-0.156072 0.8192,-0.114345 0.77561,-0.149351 0.0166,-0.0037 0.1087,-0.02472 0.68073,-0.139464 0.96381,-0.04331 0.50091,-0.01832 0.28553,-0.01501 0.58807,-0.0063 0.0276,0.02145 0.0738,0.0572 0.32037,0.210219 0.3111,0.168494 0.27873,0.03594 0.36902,0.08315 0.24202,0.136467 0.10646,0.1558 0.0944,0.580506 0.15103,0.296591 0.0375,0.04243 0.64988,0.734872 0.91353,1.192708 0.2692,0.403122 0.49236,0.726924 0.47797,0.722585 0.34142,0.372644 0.27211,0.165534 0.86923,0.546169 0.7388,0.548169 0.0962,0.07182 0.38929,0.417662 0.20219,0.217993 0.6118,0.648605 0.3687,0.415943 0.24003,0.392556 0.11966,0.302194 0.0323,0.184484 -0.0731,0.175154 -0.12847,0.07816 -0.42955,0.215223 -0.0346,0.178225 0.002,0.0093 0.0618,0.27771 0.06,0.135161 0.35248,0.80896 0.22118,0.545289 0.0134,0.05156 0.25239,0.967285 0.26035,0.975596 0.31698,0.453879 0.0371,0.0681 0.22742,0.36315 0.15623,0.30488 0.28909,0.4476 0.23984,0.34137 0.1064,0.12234 0.0866,0.0991 0.14826,0.38723 0.0268,0.42212 -0.002,0.18966 -0.003,0.17106 0.0562,0.21484 0.16413,0.19113 0.28348,0.44412 0.1267,0.55903 0.0389,0.38327 0.0934,0.37846 0.0308,0.29518 0.0111,0.10632 -10e-4,0.98272 0.031,0.40462 0.004,0.0465 -0.18931,0.0203 -0.17271,0.15604 -0.181,0.318 -0.13133,0.21993 -0.31024,0.14803 -0.33847,0.053 -0.31081,-0.32618 -0.37601,-0.35588 -0.11323,-0.25422 -0.11215,-0.48928 -0.0328,-0.0466 -0.19571,-0.27951 -0.42986,0.13639 -0.65446,0.049 -0.84331,0.0698 -0.16778,0.0987 -0.01,0.20752 0.24032,0.45727 0.19236,0.45062 0.0459,0.25803 0.063,0.36017 0.22694,0.41895 0.055,0.12902 1.00248,1.10181 0.17809,0.1346 0.0785,0.0598 0.0301,0.0772 0.0193,0.0499 -0.0235,0.085 -0.0706,0.26007 -0.18013,0.40376 0.0268,0.31419 0.19105,0.18733 0.11376,0.10632 0.16862,0.12888 0.0858,0.0631 -0.25386,0.29273 -0.12975,0.2812 -0.027,0.0584 0.0257,0.0192 0.14498,0.10583 -0.17984,0.61143 0.0518,0.11643 0.18502,0.0164 0.3124,-0.10155 0.27979,-0.18349 0.21328,-0.0405 0.11942,0.0437 0.19436,-0.43739 0.13708,-0.0497 0.20963,0.0695 0.0665,0.0221 0.45116,0.63596 0.11529,0.16684 0.51248,0.69567 0.15132,0.13079 0.0935,0.0793 0.31331,0.22465 0.19674,0.16603 0.36511,0.25269 0.43374,-0.0519 0.57827,0.0376 0.0883,0.062 0.29691,0.20148 0.0891,0.0676 0.14481,0.10741 0.0134,0.0231 0.0249,0.0107 0.71517,0.70241 0.25227,0.0222 0.10922,0.10301 0.10021,0.0938 0.14063,0.39384 -9.1e-4,0.45744 0.0571,0.23589 0.29696,0.0884 0.11989,0.0758 0.51421,0.36222 0.52654,0.36563 0.0334,0.023 0.27895,0.14485 0.32451,0.26316 0.31962,0.37479 0.566,0.53837 0.0825,0.0863 0.38146,0.38242 0.0918,0.34573 0.0476,0.19829 -0.17495,-0.13072 -0.22106,0.0408 -0.0496,0.0534 -0.16067,0.17653 -0.0973,0.15329 -0.46112,1.00453 -0.27117,0.34226 -0.31062,0.56853 -0.0831,0.18853 -0.23593,0.54241 -0.45854,1.08413 -0.50286,1.69901 -0.27531,0.88166 -0.1381,0.37943 -0.0698,0.84415 -0.21122,0.97907 -0.38094,0.56229 -0.0184,0.0183 -0.12728,0.12691 -0.0684,0.0686 -0.32146,0.81176 -0.2701,0.9315 0.0172,0.27765 0.29224,0.28737 0.0906,0.0817 0.0757,0.0658 0.14093,0.11725 0.40854,0.25309 0.37832,0.24126 0.28216,-0.0467 0.11064,-0.24322 0.1326,-0.23977 0.0687,4.3e-4 0.24248,6.1e-4 0.34502,0.24338 0.2075,0.2229 0.0973,0.0679 0.58836,0.32599 0.011,0.006 0.52595,0.28284 0.19018,0.14201 0.41827,0.30334 0.15215,0.29834 0.13562,0.31932 0.0618,0.0838 0.23845,0.31763 0.707,0.73371 0.28047,0.22247 0.25424,0.1889 0.0912,0.0649 0.52835,0.35943 0.41861,0.24456 0.18893,-0.0909 0.20115,-0.21505 0.12266,-0.0948 0.055,-0.0425 0.21568,0.0481 0.32369,0.19422 0.70109,0.72958 0.17466,0.18865 0.44269,0.44269 0.69881,-0.22532 0.18106,0.0822 0.0135,0.0716 0.0461,0.24159 0.0528,0.27288 0.0711,0.59341 0.80056,0.22561 0.50103,0.0568 0.0349,0.004 0.59976,0.25419 0.2974,0.2577 0.33966,-0.43452 0.0685,-0.29727 0.13164,-0.0938 0.1295,-0.0919 0.43027,0.0131 0.84274,0.43386 0.12852,0.0483 0.2332,0.0855 0.28138,-0.51225 0.51967,-0.21896 0.26698,-0.22991 0.18819,0.14078 0.38766,0.29097 1.04708,0.61816 0.0684,0.0468 0.43879,0.29398 0.0462,0.0334 0.15448,0.38422 0.0928,0.36613 0.10271,0.8949 0.13968,0.43103 0.62477,0.64519 0.17357,0.1633 0.12739,0.11571 0.31962,0.37575 0.24402,0.0953 0.13378,-0.006 0.10184,0.1054 0.12877,0.53117 0.074,0.11236 0.0975,0.0522 0.0867,0.0457 0.19461,0.0356 0.55564,-0.54433 0.38358,-0.39589 0.0359,0.006 0.27112,0.0434 0.21949,0.35505 0.0754,0.54614 0.0457,0.75029 0.16061,0.34647 0.20186,0.004 0.29558,-0.32495 0.24514,-0.26411 0.36766,0.30166 0.34652,0.0631 0.17335,0.0684 0.0973,0.038 0.1091,0.0422 0.14165,0.14331 0.36495,0.49252 0.32684,0.34287 0.11996,0.12529 0.19425,-0.11149 0.97647,-1.33772 0.0614,0.10801 0.0633,0.96666 0.21734,0.27901 0.36281,0.17419 0.37092,-0.53444 0.13986,-0.19728 0.32846,0.0445 0.46077,-0.10643 0.4635,-0.39287 0.0398,-0.0333 0.43875,-0.20454 0.92539,0.21005 0.2545,-0.17154 0.28523,-0.35919 0.65512,-1.1714 0.14273,-0.24576 0.0286,-0.0488 0.74289,-1.23747 0.0557,-0.51521 -0.25889,-0.72351 -0.0733,-0.0796 -0.005,-0.005 -0.81946,-0.89549 -0.0889,-0.35391 0.15684,-1.26312 0.0888,-0.77878 0.25447,-1.02757 0.18302,-0.40375 0.029,-0.0686 0.0392,-0.13753 0.136,-0.53923 -0.002,-0.28809 -0.0559,-0.18504 -0.25742,-0.13082 -0.0825,-0.14527 0.0415,-0.11271 0.172,-0.0497 0.77228,0.0808 0.84271,0.0679 0.17946,-0.004 0.005,-1.6e-4 0.12654,-0.004 0.21638,-0.0387 0.18429,-0.0909 0.2493,0.11201 0.90128,0.6074 0.15917,0.13261 0.1995,0.16703 0.27718,0.42024 0.12913,0.19576 0.22293,0.27225 0.15136,0.50458 0.0169,0.12553 0.0514,0.35024 0.11812,0.69369 0.33987,0.55957 0.37178,0.28463 0.0763,0.0536 0.36519,0.2153 -0.0216,0.0261 -0.009,0.0118 -0.27473,0.0487 -0.26826,0.0742 -0.0598,0.1317 0.18871,0.15241 0.28698,0.12333 0.0495,0.0347 0.099,0.0671 0.0581,0.26868 0.20555,0.0203 0.10706,0.007 0.31084,0.15543 0.29032,0.0972 0.0932,-0.0119 0.36902,-0.009 0.0953,0.0789 0.16802,0.11397 0.12366,0.0667 0.007,0.004 0.0821,0.0681 0.0501,0.0534 0.004,0.0407 0.0171,0.0479 0.22708,0.10719 0.13502,0.0986 0.30867,0.0754 0.0916,0.0274 0.43148,0.15008 0.0887,-0.14617 0.0832,0.0268 0.0396,0.005 0.16388,0.0152 0.35871,0.3347 0.44268,0.45257 0.21992,0.20997 0.39769,0.35366 0.40544,0.39083 0.42207,0.38862 0.5367,0.48986 0.72376,0.76877 0.12277,0.004 0.16797,-0.0353 0.16417,0.16096 0.68496,0.96187 1.09044,1.16161 0.1642,0.11194 0.25609,0.16635 0.49001,0.36594 0.35355,0.31056 0.30776,0.30335 0.40738,0.44884 0.25354,0.113 -0.023,-0.19447 -0.0157,-0.13697 -0.15535,-0.35366 -0.18793,-0.42683 -0.0713,-0.12592 -0.52519,-0.91666 -0.42037,-0.63164 -0.14354,-0.23591 -0.15743,-0.39837 -0.13173,-0.50248 -0.0193,-0.31624 -0.0156,-0.20244 -0.10503,-0.15704 -0.21185,-0.31504 -0.29831,-0.43962 -0.68182,-0.99233 -0.25563,-0.19468 -0.57116,-0.1906 -0.60201,-0.33591 -0.22201,-0.23677 -0.24672,-0.25635 -0.3516,-0.47309 -0.10637,-0.30803 0.0315,-0.26048 0.007,-0.065 0.077,-0.30456 0.008,-0.1219 0.29506,0.037 0.0381,0.005 0.49855,0.16153 0.44261,0.22406 0.33745,0.0846 0.30518,-0.34099 0.18946,-0.0978 0.26785,0.0226 0.34168,0.0194 0.15092,-0.0411 0.0972,0.0973 0.36459,0.17068 0.38222,0.0935 0.0471,-0.005 0.28725,-0.0358 0.35594,-0.0676 0.6684,-0.091 0.0946,-0.24436 -0.0428,-0.29494 -7.5e-4,-0.005 -0.14853,-0.25711 -0.1337,-0.15311 0.0185,-0.22681 0.19976,-0.31774 0.41884,-0.0295 0.4793,-0.0591 0.81379,-0.17383 0.29742,-0.2516 0.0772,-0.0789 0.0561,-0.39834 0.0245,-0.21364 0.16371,-0.51289 0.19236,-0.15791 0.54162,0.0354 0.71701,0.12024 0.83763,0.19997 0.48167,-0.0469 0.15353,-0.057 0.31733,-0.14679 0.15822,-0.0892 0.24431,-0.3764 0.16906,-0.16089 -0.0552,-0.26914 0.54158,0.15381 0.32315,-0.29062 0.12924,-0.0917 0.0952,-0.0736 0.161,-0.13731 0.81998,-0.0543 0.54072,-0.0731 0.16686,-0.0194 0.32549,0.18788 0.36804,0.3621 0.26207,0.39157 0.0977,0.20997 0.97458,0.75202 0.11688,0.0916 0.1461,0.054 0.78384,0.80544 0.0766,0.082 0.84534,0.98109 0.15723,0.15163 0.26632,0.25741 0.18159,0.12752 0.11691,-0.0242 0.049,-0.28631 0.0157,-0.0275 0.0771,-0.14161 0.0815,-0.0388 -0.19545,-0.52248 0.58057,-0.006 0.16344,0.01 0.70315,0.18514 0.59159,0.19742 0.0332,0.0103 0.3054,0.32932 0.38419,0.49048 0.61382,1.04724 0.24633,0.36448 0.37,0.32833 0.11164,0.16909 0.0547,0.26644 -0.12452,0.18765 -0.21694,0.0599 -0.0313,0.0314 -0.0834,0.0867 0.46501,1.28988 0.11791,0.40023 0.13824,0.23026 0.33585,-0.44374 0.12601,0.0613 0.14961,0.0738 0.20955,0.40676 0.23061,0.65518 0.61384,1.60434 0.26902,0.84812 -0.0184,0.11275 -0.15711,1.02612 9.2e-4,0.0841 0.0169,0.64797 0.0839,0.34123 0.0478,0.3178 -0.0626,0.33545 0.0411,0.19558 0.17325,0.40506 0.004,0.008 0.18293,0.34381 0.0657,0.0514 0.004,0.003 0.0191,-0.15838 0.0205,-0.17254 0.42009,-0.10545 0.17878,0.26214 0.45896,0.98392 0.002,0.005 0.13872,0.28648 0.19662,0.21364 0.56785,0.74552 0.23015,-0.0382 0.14976,0.25445 0.1681,0.28511 0.69131,1.47644 0.13081,0.26451 0.15629,0.66275 0.16268,0.86096 0.21812,0.76241 0.0155,0.0743 0.11464,0.55229 0.0942,0.55934 0.0205,0.35868 -0.10969,0.12909 -0.05,0.556 -0.0735,0.3368 -0.12712,0.41268 -0.20485,0.64302 -0.075,0.3889 -0.0412,0.23486 0.0227,0.76101 0.13421,1.02926 0.16618,1.09073 0.25396,1.83103 0.18675,1.75374 -0.0177,0.56612 -0.12375,0.14172 -0.1577,-0.40844 -0.14611,-0.58944 -0.21276,-1.5795 -0.0364,-0.10478 -0.10601,-0.29993 -0.0484,-0.13459 -0.18447,-0.18672 -0.6023,0.21404 -0.12742,0.0437 -0.30189,0.1207 -0.19943,0.16421 -0.35184,0.39818 -0.047,0.40914 -0.0499,0.68706 0.004,1.03466 -0.2029,0.21617 -0.24681,0.53799 -0.0361,0.065 -0.15936,0.34811 -0.22434,1.38125 -0.31133,0.51039 -0.006,-0.002 -0.3654,-0.0955 -0.18296,0.19719 0.007,0.14359 0.0377,0.50946 0.0494,0.48334 0.33932,1.40601 0.14709,1.3667 0.0318,0.31123 0.155,1.10863 0.0525,0.25095 0.0279,0.3057 -0.0203,0.50214 -0.0571,0.45477 -0.0553,0.2515 0.008,0.59416 0.0172,0.98411 -0.063,0.68358 -8.7e-4,0.007 -0.13354,0.94001 -0.17595,0.66082 -0.0863,0.13539 -0.17717,0.24145 -0.16444,0.37641 -0.11929,0.76022 -0.0182,0.12832 -0.0702,0.79687 -0.003,0.30077 0.0422,0.30855 0.0597,0.17709 0.0894,0.26691 0.17608,0.45761 0.002,0.0166 0.0409,0.4624 -0.004,0.52404 -0.10856,1.17531 -0.22667,1.56178 -0.0131,0.0937 -0.005,0.027 -0.24761,1.28798 -0.28154,1.31576 -0.10547,0.47648 -0.154,0.70169 -0.2611,1.15522 -0.45307,2.36769 -0.0457,0.18914 -0.15653,0.66286 -0.21031,0.92888 -0.25698,1.11309 -0.12351,0.0838 -0.0972,-0.31859 -0.33339,-0.47583 -0.0254,-0.0369 -0.25932,-0.4632 -0.19692,-0.41828 -0.15233,-0.0222 -0.26947,0.11115 -0.26623,-0.0353 -0.0502,-0.006 -0.18918,-0.31753 -0.37226,-1.12958 -0.11751,-0.34055 -0.13504,0.0371 -0.014,0.12033 -0.0434,0.39726 0.4609,3.42541 0.20384,0.96428 0.0264,0.13304 0.1068,1.65713 0.005,1.99058 -0.002,0.071 -0.0687,2.10444 -0.0505,0.51274 -0.1299,0.61758 -0.12542,0.17814 -0.0975,-0.25885 -0.0987,0.0523 -0.0563,0.41947 -0.0107,0.31476 -0.0268,0.76695 -0.0675,0.46619 -0.11251,0.80889 -0.13377,1.095 -0.0307,0.9615 -0.005,0.254 -0.0134,0.69865 -0.005,1.37546 -0.0273,0.62786 -0.11627,0.88806 -0.0899,0.58098 -0.0404,0.25876 -0.0245,0.0974 -0.0889,0.35182 -0.11008,0.14133 -0.11566,0.45861 -0.12991,0.6189 -0.49833,2.27482 -0.2261,0.49513 -0.0857,-0.003 -0.0321,-0.82567 -0.008,-0.16177 -0.10648,-0.1778 -0.11924,0.18302 -0.12364,0.47253 -0.24765,1.03263 -0.21816,0.72602 -0.38411,0.80414 m -17.53645,53.97149 -0.14435,0.15266 -0.21507,0.22893 0.0794,-0.59088 -0.13418,0.034 0.12138,-0.21986 0.0807,-0.14614 0.16554,-0.18263 0.50224,-0.33658 0.0614,0.0369 -0.0143,0.0503 -0.0639,0.22913 -0.0703,0.25978 -0.36847,0.48439 m 0.35632,-1.2667 -0.40885,0.36696 -0.0401,-0.10486 0.10639,-0.12878 0.14742,-0.10558 0.15074,-0.12457 0.0444,0.0968 m -0.14611,-1.08223 -0.20718,0.0785 -0.006,-0.0943 -0.0271,-0.0919 0.10904,-0.12922 0.11673,-0.0641 0.0768,0.12089 -0.0237,0.11873 -0.0383,0.0614 m 0.44,-0.5415 -0.10729,0.0902 -0.0503,0.0423 -0.0255,-10e-4 0.0112,-0.0625 0.0144,-0.0465 0.0135,-0.0794 0.0496,-0.1474 5.3e-4,-0.002 0.14894,-0.1613 0.0251,-0.002 0.061,-0.005 -0.0826,0.11688 -0.0222,0.0315 -0.0363,0.22628 m -84.99349,1.7464 -0.009,0.0134 -0.0293,-0.0126 -0.0334,-0.0253 -0.0455,-0.0505 -0.016,-0.0255 0.0629,0.0592 0.0236,9.2e-4 -0.0253,-0.067 -0.0135,-0.0251 0.025,0.0259 0.0351,0.0518 0.0253,0.0548 m 84.15303,-1.85174 0.005,0.008 0.0364,0.0549 -0.0666,0.0182 -0.0756,0.0206 -0.0773,-0.0913 0.091,-0.14538 0.0692,-0.0651 0.0174,0.19972 m -0.21907,-1.56324 -0.009,0.004 -0.11407,0.0453 -0.0469,-0.0429 0.0211,-0.0742 0.0882,-0.0715 0.0741,-0.0457 0.0581,-0.0129 0.004,-8e-4 0.0119,0.10948 -0.0873,0.0896 m 0.25428,-2.81563 -0.10566,0.11154 -0.1151,-0.01 -0.13016,-0.0109 0.0945,-0.29277 0.003,-0.1268 0.003,-0.14159 0.0797,-0.12818 0.18677,-0.16811 0.0856,-0.0748 0.20669,-0.12246 0.0572,0.23522 -0.0146,0.24634 -0.0152,0.0201 -0.33557,0.46222 m -92.62291,-5.1759 -0.003,0.008 -0.0419,-0.0722 -0.0391,-0.0929 -0.0156,-0.0519 0.0125,0.0162 0.033,0.0673 0.0425,0.0894 0.0118,0.0356 m 93.95522,2.72684 -0.17986,0.0953 -0.14716,-0.0267 0.13297,-0.11844 0.0266,-0.0237 0.0828,-0.22937 0.13536,0.0818 -0.0403,0.12005 -0.008,0.0243 -0.002,0.0767 m 1.59854,-2.38409 0.0314,0.44478 -0.21784,-0.0999 -0.0518,-0.13238 0.16118,-0.16572 0.0771,-0.0468 m -0.31592,-2.75956 -0.002,0.003 -0.15407,0.22415 0.0424,-0.20218 0.0501,-0.23818 0.0615,-0.0646 0.0558,-0.0247 0.0548,0.0294 -0.10828,0.27279 m -1.06646,4.69695 -0.0923,0.0828 -0.0908,-0.0435 -0.18006,-0.47414 0.0182,-0.19192 0.0152,-0.16044 -0.0572,-0.10628 0.15414,-0.20692 0.15484,-0.10309 0.13611,-0.26629 0.11172,-0.38529 0.07,-0.1262 0.1184,-0.2144 0.0805,-0.10285 0.25353,-0.0715 0.058,-0.0455 0.0151,-0.0119 0.0103,-0.10734 0.018,-0.1826 -0.11817,-0.0886 -0.0324,-0.0692 0.13374,-0.56834 0.0352,-0.14938 0.10442,-0.29849 0.13779,-0.2172 0.0201,-0.33402 0.0749,-0.13889 0.12789,-0.12596 0.0357,-0.0352 0.0563,-0.0555 0.16579,-0.39842 -0.0488,-0.0934 0.24127,-0.533 0.007,-0.0161 0.0498,-0.34696 0.23831,-0.358 0.29935,-0.18647 0.0876,-0.0158 -0.0199,0.27705 0.0169,0.0878 -0.18659,0.19305 0.13911,0.20365 -0.0304,0.0851 -0.004,0.009 -0.0821,0.1795 -0.13448,0.19291 -0.17076,0.0958 -0.17117,0.26817 -0.0961,0.11196 0.16293,0.2041 0.0289,0.0344 -0.13531,1.00246 -0.11286,0.15107 -0.15875,0.21516 -0.25028,0.12563 -0.12783,0.78935 -0.0804,0.19507 -0.12237,0.17915 -0.19461,0.28282 -0.0798,0.18519 -0.008,0.01 -0.15768,0.18558 0.0118,0.19117 0.0579,0.0344 0.0356,0.0174 -0.0296,0.1332 -0.0806,0.15895 -0.0783,0.15443 -0.0278,0.0548 -0.10255,0.39444 z"
            id="path8000"

            fill="#000000"
            stroke="#FF0000" />
    </g>
</svg>