<?xml version="1.0" encoding="UTF-8" standalone="no"?>
<svg
   version="1.1"
   x="0px"
   y="0px"
   width="842px"
   height="595px"
   viewBox="0 0 842 595"
   id="svg8287">
  <metadata
     id="metadata8293">
  </metadata>
  <defs
     id="defs8291" />
  <g
     id="people_map_icon"
     transform="matrix(3.9244879,0,0,3.0653226,-2069.6,-117.02549)">
    <path
        fill="#aa0000"
        stroke="#007d7d"
       d="m 537.14947,76.234713 c -2.3376,-1.504647 2.62267,0.162313 2.98265,-0.773248 -1.31588,-0.517259 -2.12894,-2.138857 -1.66633,-3.537516 -1.60044,-1.750238 -4.35729,1.324085 -4.43676,-1.307696 0.47519,-1.127164 -0.10174,-2.616495 1.45517,-3.363104 0.17291,-2.161187 3.43171,-2.389479 4.27439,-3.926594 2.09349,-1.372918 2.21843,0.77194 3.96267,-0.345182 1.22123,0.462487 1.34958,-2.596267 3.20963,-1.906433 1.63939,0.333266 2.44166,-0.361637 3.55787,-1.00573 1.77998,-0.339411 4.68391,1.249627 5.49191,1.153452 -0.47894,-0.552575 -4.15414,-2.494131 -0.54557,-1.680955 -1.29359,-0.311764 -1.14169,-0.87636 1.64077,-0.290035 -0.58788,-0.473171 -1.91381,-1.786346 -3.52315,-1.920168 -1.33333,-0.747801 2.1636,-2.439043 -0.99325,-1.066892 -2.14585,0.771211 2.32322,-1.730258 3.2707,-1.855961 2.98258,-1.325191 6.14644,-0.503823 9.10079,-0.397958 0.0146,-1.349734 -3.86586,-0.145453 -1.2146,-1.680904 4.84222,-3.868034 11.41727,-1.619944 16.90176,-2.893153 0.35115,-0.437315 -1.83701,-1.43157 0.96748,-1.593841 3.66046,-0.104385 7.4149,-0.994913 10.49088,-1.481533 2.93175,-0.03144 6.88853,-0.313909 9.24933,-0.226384 -1.76637,0.108232 2.24112,0.03198 1.57939,0.295161 4.83407,0.705916 10.24753,-0.362433 14.78103,2.020111 0.51521,0.72041 2.20641,0.433852 0.94704,1.075018 -1.05907,0.114113 -4.08698,2.265053 -2.06836,1.645485 3.61166,-1.951075 8.20523,-1.062533 11.73715,-0.237401 0.81098,0.675803 1.33011,1.507488 0.99715,2.54451 1.40614,-1.963832 4.26378,-0.83167 6.35745,-1.103597 1.98783,-0.02991 4.38298,1.586782 5.41405,2.239358 0.81574,0.179846 1.65221,3.066435 1.5363,0.238126 2.18902,-0.329284 4.30222,0.765913 5.50536,2.600507 0.70909,-0.282266 1.51105,1.260989 1.63785,-0.129244 1.02675,0.180778 2.20492,1.535274 3.22344,1.350003 -0.94844,-2.076123 -3.68625,-3.40048 -4.91567,-4.531334 1.91026,-1.102454 4.39649,1.495555 6.13017,2.489375 0.78148,0.783589 1.86726,0.595271 1.13177,-0.02955 2.69277,1.235196 5.08276,3.411444 7.65653,4.546996 -1.69819,-1.840927 3.22836,1.345833 4.11982,1.843834 0.61045,-0.04073 2.24031,1.09847 3.67884,1.850699 3.32319,1.615382 6.49978,4.673361 9.84669,5.488342 -3.51896,-3.693106 -8.28311,-6.203161 -12.67345,-8.827793 -1.97618,-0.883156 -3.8481,-0.853709 -5.53693,-2.565587 -3.00322,-2.175575 -6.7973,-2.760465 -9.63811,-5.145714 0.46087,0.170763 1.10398,-1.059273 2.87094,-1.775563 2.06171,-1.180254 4.3666,1.77299 6.58025,0.94864 2.96268,1.177767 4.38348,1.10127 1.93985,-0.08387 0.9494,-0.572013 1.45752,-0.583047 3.03387,-0.961703 2.31284,0.278761 5.27967,0.411727 3.60637,-0.616945 -1.81859,-0.384871 -6.118,-0.685757 -1.80934,-0.562535 8.40971,0.4381 16.68882,2.349885 24.83016,4.397377 6.22427,2.140581 12.7927,3.691023 18.07183,7.346884 1.69702,1.575239 3.64684,2.937696 4.36234,4.669872 2.78276,0.407687 5.08463,2.223548 7.09734,4.295942 1.47246,1.164975 1.30462,4.201629 3.49377,3.865965 0.63391,0.215663 0.86389,-0.298634 2.08968,0.554207 2.67022,0.749624 4.47821,3.857801 4.84073,6.299432 0.99399,4.863631 2.39888,10.412604 1.4538,15.143525 -1.21355,-0.886666 -2.534,-3.527927 -2.29465,-0.590352 -2.20297,-0.312779 -1.26847,0.436575 -0.10159,2.086384 1.3631,1.719507 2.15407,5.488947 -0.26051,6.505437 0.88434,2.57529 -0.61023,-1.33491 -1.55779,-1.42179 -1.84313,-0.97734 0.5233,3.62827 -1.51286,2.41111 -1.42506,-0.54454 -2.09937,2.14792 -4.28362,0.46325 -2.84962,-1.22902 -1.15594,1.04132 -0.0978,2.15805 -0.82714,1.59818 -3.5739,-1.13267 -5.14696,-1.35361 -0.45668,-1.79761 -3.01313,-1.37473 -2.67513,0.54401 -1.62158,1.87916 -3.50835,2.89441 -5.48283,4.49384 -1.82492,1.48955 -1.41601,4.49482 -2.88861,6.14739 -0.85503,-0.35631 -1.31618,1.48499 -2.50434,2.71224 -0.63562,1.31634 -0.8702,0.90763 -1.86064,0.6196 -2.57167,-1.47548 0.93586,-0.0832 -0.16009,-1.52189 -0.65501,-1.10033 -2.31521,-2.27243 -1.76309,-3.86974 1.525,-1.76244 1.04633,-4.39569 -0.0462,-6.36951 0.26764,0.51158 -1.92002,-1.46747 -1.86473,0.79738 1.33681,3.07799 -2.20374,1.93317 -1.68625,4.09701 0.36428,2.36958 -3.24165,-0.90469 -3.77447,-1.69497 -2.24181,-1.79058 -0.50533,2.79203 0.84688,3.228 2.35787,1.35303 4.91335,3.449 4.78065,6.12153 0.61408,1.46189 2.67341,2.86923 2.73522,1.2039 1.27137,-0.0997 3.39896,2.2727 4.19194,3.87249 0.76151,0.72045 1.6179,1.91999 2.06727,3.44207 0.60448,3.15963 0.17853,1.21025 -0.74255,1.19985 -1.7924,0.5792 -1.92356,-1.45962 -1.09307,1.46107 -0.61797,-0.70159 0.32853,3.87945 -1.0869,-0.10151 -0.70287,0.60934 1.35737,2.2744 -0.0924,2.59749 -1.4126,1.03982 0.28403,3.55953 1.71134,4.85599 2.90451,4.30676 3.13501,9.78512 5.60542,14.24813 0.27772,1.0274 3.22332,6.29353 1.24771,3.44326 -1.58197,-1.02503 -1.8704,-4.44208 -3.93325,-3.99723 -0.0309,-0.19069 2.38479,1.61509 2.79912,3.29817 1.16509,1.97989 3.00354,4.08194 3.28404,6.25799 -1.63876,-0.0202 -1.94975,1.08608 -3.89633,0.28528 0.69736,1.23681 3.51891,1.02591 4.3993,2.75615 1.96135,0.56502 0.50037,3.48373 1.26061,2.78115 1.21022,2.14263 0.0821,1.71661 -0.0511,2.1919 0.89791,1.24563 -0.0962,1.53182 0.46606,3.27752 -0.38128,0.0949 -1.91995,0.43458 -1.82582,1.21513 -0.44187,1.63703 -1.79421,2.9013 -3.0528,4.17554 -0.18829,-0.99803 -2.10882,-0.46001 -0.68766,0.36481 0.30036,1.16657 -3.45163,1.84808 -2.23208,2.19464 1.98618,-1.73459 0.0868,1.84137 -1.01135,2.05466 -1.30378,1.68237 -2.60725,3.8671 -3.62301,5.97439 -1.14286,0.89359 -1.84817,2.05004 -1.47783,3.18454 -0.7885,1.86122 -1.79389,2.93845 -2.00515,4.90557 -0.0327,-1.74226 -1.15443,1.19168 -1.5585,1.92489 -0.24609,1.10762 -0.51049,1.93607 -1.28733,2.34577 -0.98805,1.4677 -2.16403,-1.70625 -2.76294,0.14003 -1.93631,-3.18123 0.39136,1.51712 -1.87803,-0.50282 -1.63621,0.11461 -2.92467,-1.08963 -3.49842,-2.84335 0.27834,-2.60183 -1.60435,0.63088 -0.68472,1.9186 -0.83667,2.39708 0.29726,4.64262 -1.46947,5.56319 -1.26819,2.22679 -1.30959,-1.90788 -1.03272,3.09463 -0.43194,-0.36635 -0.78624,2.10271 -1.42427,-0.96761 0.82565,3.31992 -0.60519,0.59948 -0.83465,1.94152 -0.18258,1.89764 -1.63822,-0.12257 -2.19301,1.5883 -1.28222,-1.26936 -1.19253,1.07189 -0.5732,1.73359 2.55427,1.55561 -2.35336,0.9315 -1.12407,0.55732 -1.803,-0.89198 -1.44233,-3.07284 -0.69391,-4.42517 -1.37327,-1.03105 -0.28362,-1.71012 -1.79734,0.13973 -0.0337,-0.89354 -1.46149,-2.19642 -1.28462,-3.80511 -0.43439,1.17579 0.0936,1.81422 -0.78141,2.10959 -0.6897,-0.36967 -1.91438,-1.92731 -2.75116,-3.02684 -0.9845,-2.16669 -2.06582,-3.51252 -2.31903,-5.8941 -0.63183,-1.69407 0.6097,-4.59088 -2.13662,-4.87409 -0.83216,-1.59194 -2.74795,-1.03546 -3.31364,-3.18573 -1.07276,-2.23334 -3.11042,0.43137 -3.26288,1.81203 -1.70338,1.70132 -3.16556,-0.0866 -3.34102,2.77963 -1.04267,-3.17262 -1.55482,2.09618 -2.03879,-0.75351 -0.91783,1.38769 -1.56829,4.42141 -2.62741,1.63953 -1.11179,1.60639 -1.55086,4.13383 -3.00017,4.74448 -0.27346,-1.53301 -1.47591,2.9304 -1.24269,4.36918 0.45418,2.26103 0.22915,5.71271 -0.11045,7.41861 -1.03975,-0.23972 -0.39069,-2.5952 -0.62613,-4.18218 -0.38149,-0.72469 -0.80534,3.50849 -2.20252,1.6693 -0.85244,-1.25598 0.31272,-4.5147 -2.08048,-3.90626 -0.37575,-2.20691 1.01864,-5.10337 1.32798,-7.47806 -2.51198,0.18314 -0.43615,-3.27084 -0.99373,-4.91382 -0.0277,-2.21058 1.32473,-3.65119 -0.93074,-2.12369 -1.55561,3.47198 -1.09614,1.62183 -0.81122,-1.16837 -0.30665,-3.49802 0.31735,-7.17152 1.16101,-10.33679 -0.0813,-2.03854 1.73546,-3.44132 1.01866,-5.69821 0.6075,-4.42621 0.55728,-9.27348 0.0737,-13.75635 -0.58998,2.44424 -0.49436,-3.20231 -0.98654,-4.59525 -0.3091,-2.15104 -1.43409,-4.02026 -2.38347,-5.84264 0.77337,4.05196 0.004,1.23615 -1.75619,-0.45685 -0.70842,-1.89731 -2.10602,-0.83459 -1.79332,-3.64328 0.39952,-1.56923 -0.65114,-5.18998 -1.90098,-4.7667 -0.41579,-2.00604 -0.43629,-3.38327 -2.24597,-5.06142 -2.30488,-1.57402 -1.75202,2.15167 -3.49408,-0.70093 -1.60819,-1.26891 -3.38251,-4.45408 -5.52723,-2.35882 -0.68248,1.60285 -4.45997,-0.47884 -4.54339,1.91979 -2.8004,-0.046 -1.26116,2.6455 -3.81452,2.19802 -1.98681,-0.12356 -3.09079,-0.0135 -4.05522,-1.62627 -0.86187,0.16806 -1.85334,-0.15924 -2.95818,-0.59556 0.32565,-2.15289 -2.71414,-1.68192 -2.28369,0.2792 -0.56138,2.96522 -1.52721,-1.86802 -2.46603,-2.6409 -1.56998,-1.51219 -3.6095,-0.37385 -5.22842,-0.73529 -1.69709,1.13397 -3.6752,0.4784 -5.00549,-0.60891 -0.84784,1.44403 -2.07589,-0.10684 -2.49822,0.6781 0.12915,-2.58649 -4.18093,-0.63724 -2.96585,-3.43771 -2.35498,0.58829 -3.47784,-2.59688 -4.51519,-4.15924 -2.33038,0.84102 -2.75559,-2.59913 -4.87955,-3.29597 -1.82289,-1.27945 -2.25817,-3.87702 -4.458,-4.428 -1.59429,2.66033 -1.52053,1.28342 -3.42844,-0.88482 -2.03021,-0.76643 -2.04682,-2.52883 -3.74035,-3.54035 -1.94202,0.62588 -3.10424,-3.2214 -4.20376,-2.20568 -1.93535,0.81999 -0.59765,-1.48913 -1.14788,-2.42334 0.006,-1.11875 -3.62047,-3.96631 -1.017,-4.21854 1.52843,0.10832 3.75472,2.9481 3.51474,-0.78287 -0.33635,-3.2909 -2.64906,-5.73183 -3.39801,-8.977999 0.28608,-1.460537 0.16141,-2.805672 -1.65507,-4.033646 -2.61573,-1.423224 -4.11042,-4.373283 -5.66434,-6.626364 -2.85919,-1.455054 -7.12358,-0.954803 -9.26991,-3.365057 -1.53602,0.394277 -3.39566,-0.907046 -3.04294,-2.277326 -0.62847,-2.24841 -3.3001,-1.864701 -4.54934,-3.250587 -1.43607,-0.391986 -2.82686,-0.611763 -4.25983,-0.967666 z M 686.85569,218.35278 c 0.87172,1.54786 -1.27721,2.70413 -1.13211,4.50134 -1.16259,1.34442 -2.66544,2.26852 -4.57726,1.35809 -3.1599,-0.38155 -3.15137,-5.30954 -0.25867,-6.1638 -0.34289,-0.85394 3.03198,-0.43404 4.14133,-0.29404 0.42663,0.34094 0.94328,-0.2322 1.82671,0.59841 z m -2.29969,-3.62004 c 1.68548,0.93624 -0.73502,0.50094 0,0 z m 5.03809,-0.6271 c -0.85703,0.27665 0.27893,-1.45553 0,0 z m 0.41273,0.22705 c -0.60111,-0.53473 -0.26398,-2.54369 0,0 z m 2.59505,-12.97441 c -0.31849,0.54678 -0.57638,-1.31927 0,0 z m 13.82088,-8.04617 c -0.35817,1.40007 -0.17268,-0.55961 0,0 z m 6.36201,-8.79126 c -1.69059,1.85504 1.4531,-2.1175 0,0 z m 6.28978,-7.6136 c -0.86422,0.27035 0.13264,-1.14963 0,0 z m 0.79299,-6.35039 c -0.29785,-0.0427 -0.47488,-1.38647 0,0 z m 0.1203,-0.75825 c 0.10995,0.73617 -0.3944,-1.12563 0,0 z m -0.289,-0.50093 c -1.17774,-0.96689 -0.79713,-1.88264 0,0 z m -2.93344,-7.6862 c -1.41144,-1.35509 -2.88904,-5.02567 -0.85082,-1.443 0.30053,0.46913 0.64423,0.92117 0.85082,1.443 z"
       id="path7886" />
  </g>
</svg>
